<svg width="85" height="26" viewBox="0 0 85 26" fill="none" xmlns="http://www.w3.org/2000/svg">
<path d="M24.7403 10.8865C24.8603 11.6545 24.9203 12.3265 24.9203 12.9025C24.9203 16.4305 23.7683 19.4305 21.4643 21.9025C19.1603 24.3505 16.2803 25.5745 12.8243 25.5745C9.32034 25.5745 6.33234 24.3385 3.86034 21.8665C1.38834 19.3945 0.152344 16.4065 0.152344 12.9025C0.152344 9.39847 1.38834 6.41047 3.86034 3.93847C6.33234 1.46647 9.32034 0.230469 12.8243 0.230469C15.2483 0.230469 17.4083 0.854469 19.3043 2.10247C21.2003 3.35047 22.6883 5.03047 23.7683 7.14247L19.1243 8.43847C18.4763 7.33447 17.6003 6.45847 16.4963 5.81047C15.4163 5.16247 14.1923 4.83847 12.8243 4.83847C10.5923 4.83847 8.68434 5.63047 7.10034 7.21447C5.54034 8.77447 4.76034 10.6705 4.76034 12.9025C4.76034 15.1345 5.54034 17.0425 7.10034 18.6265C8.68434 20.1865 10.5923 20.9665 12.8243 20.9665C14.5523 20.9665 16.0523 20.4625 17.3243 19.4545C18.5963 18.4465 19.4723 17.1265 19.9523 15.4945H11.0963V10.8865H24.7403Z" fill="#111111"/>
<path d="M34.4947 25.5745C32.4067 25.5745 30.7627 24.8905 29.5627 23.5225C28.3867 22.1545 27.7987 20.1505 27.7987 17.5105V7.14247H32.4067V16.9345C32.4067 18.3265 32.6827 19.3465 33.2347 19.9945C33.8107 20.6425 34.6867 20.9665 35.8627 20.9665C37.0147 20.9665 37.9747 20.5825 38.7427 19.8145C39.5107 19.0465 39.8947 17.8945 39.8947 16.3585V7.14247H44.5027V24.9985H39.8947V23.2705C38.5987 24.8065 36.7987 25.5745 34.4947 25.5745Z" fill="#111111"/>
<path d="M62.3783 24.9985H47.4023L55.1783 11.7505H47.9783V7.14247H62.9543L55.1783 20.3905H62.3783V24.9985Z" fill="#111111"/>
<path d="M79.6617 7.14247H84.2697V24.9985H79.6617V23.0905C78.2217 24.7465 76.3977 25.5745 74.1897 25.5745C71.7177 25.5745 69.6057 24.6505 67.8537 22.8025C66.1257 20.9305 65.2617 18.6865 65.2617 16.0705C65.2617 13.4545 66.1257 11.2225 67.8537 9.37447C69.6057 7.50247 71.7177 6.56647 74.1897 6.56647C76.3977 6.56647 78.2217 7.39447 79.6617 9.05047V7.14247ZM71.3097 19.5265C72.2697 20.4865 73.4217 20.9665 74.7657 20.9665C76.1097 20.9665 77.2617 20.4865 78.2217 19.5265C79.1817 18.5665 79.6617 17.4145 79.6617 16.0705C79.6617 14.7265 79.1817 13.5745 78.2217 12.6145C77.2617 11.6545 76.1097 11.1745 74.7657 11.1745C73.4217 11.1745 72.2697 11.6545 71.3097 12.6145C70.3497 13.5745 69.8697 14.7265 69.8697 16.0705C69.8697 17.4145 70.3497 18.5665 71.3097 19.5265Z" fill="#111111"/>
</svg>
